<svg xmlns="http://www.w3.org/2000/svg" width="24" height="24" viewBox="0 0 24 24"><path d="M16.493 5.06a7.616 7.616 0 0 0-4.5 1.225A7.616 7.616 0 0 0 7.5 5.06 7.615 7.615 0 0 0 3 6.285v11.969c0 .531.6.367.613.367a10 10 0 0 1 3.889-.9A7.609 7.609 0 0 1 12 18.948a9.86 9.86 0 0 1 4.5-1.225 8.331 8.331 0 0 1 3.889.858.432.432 0 0 0 .573-.209.419.419 0 0 0 .04-.159V6.285a7.694 7.694 0 0 0-4.509-1.225m2.862 11.44a9.5 9.5 0 0 0-2.862-.408 9.86 9.86 0 0 0-4.5 1.225V7.92a9.86 9.86 0 0 1 4.5-1.225 9.5 9.5 0 0 1 2.862.408Z"/></svg>