<?xml version="1.0" encoding="UTF-8" standalone="no"?>
<!-- Created with Inkscape (http://www.inkscape.org/) -->

<svg
   width="299.94373"
   height="80.827087"
   viewBox="0 0 79.360112 21.3855"
   version="1.1"
   id="svg5"
   inkscape:version="1.2.2 (b0a8486541, 2022-12-01)"
   sodipodi:docname="logo-def.svg"
   xmlns:inkscape="http://www.inkscape.org/namespaces/inkscape"
   xmlns:sodipodi="http://sodipodi.sourceforge.net/DTD/sodipodi-0.dtd"
   xmlns="http://www.w3.org/2000/svg"
   xmlns:svg="http://www.w3.org/2000/svg">
  <sodipodi:namedview
     id="namedview7"
     pagecolor="#ffffff"
     bordercolor="#000000"
     borderopacity="0.25"
     inkscape:showpageshadow="2"
     inkscape:pageopacity="0.0"
     inkscape:pagecheckerboard="0"
     inkscape:deskcolor="#d1d1d1"
     inkscape:document-units="mm"
     showgrid="false"
     inkscape:zoom="2.8284272"
     inkscape:cx="150.9673"
     inkscape:cy="77.958522"
     inkscape:window-width="2560"
     inkscape:window-height="1376"
     inkscape:window-x="1920"
     inkscape:window-y="27"
     inkscape:window-maximized="1"
     inkscape:current-layer="layer1" />
  <defs
     id="defs2" />
  <g
     inkscape:label="Layer 1"
     inkscape:groupmode="layer"
     id="layer1"
     transform="translate(0,-5.0728331)">
    <g
       id="g1243"
       transform="matrix(-1,0,0,1,128.41064,4.771116)" />
    <g
       id="g4998"
       transform="matrix(2.942531,0,0,2.942531,-19.779306,-208.02212)">
      <path
         id="path4984"
         style="fill:#d3d7cf;stroke:none;stroke-width:0.0645471;stroke-linecap:round;stroke-linejoin:round"
         d="m 7.9716064,72.527356 c -0.033828,-0.0029 -0.069886,0.01089 -0.098185,0.04909 -0.03425,0.05051 -0.058245,0.107493 -0.082166,0.163297 -0.01791,0.04181 -0.035853,0.08363 -0.052193,0.126091 -0.09354,0.243263 -0.083979,0.233494 -0.1663981,0.513147 -0.02629,0.129232 -0.059458,0.257083 -0.078548,0.387573 -0.043626,0.298205 -0.062982,0.622587 -0.05581,0.928109 h 0.2149739 c -0.00695,-0.290898 0.010897,-0.602021 0.051677,-0.885218 0.01792,-0.124425 0.049604,-0.246767 0.074414,-0.370003 0.02812,-0.09589 0.053573,-0.192204 0.084233,-0.287321 0.03903,-0.121206 0.076424,-0.212001 0.1245402,-0.325045 0.01053,-0.02482 0.021296,-0.04991 0.032556,-0.07441 0.01153,-0.02497 0.014521,-0.02966 0.025321,-0.04806 0.06226,-0.08405 8.8e-6,-0.170939 -0.074414,-0.17725 z" />
      <circle
         style="fill:#75507b;fill-opacity:1;stroke:none;stroke-width:0.3;stroke-linecap:round;stroke-linejoin:round"
         id="circle4986"
         cx="63.936134"
         cy="40.08577"
         r="0.75446361"
         transform="rotate(52.148714)" />
      <path
         id="path4988"
         style="fill:#d3d7cf;stroke:none;stroke-width:0.0645471;stroke-linecap:round;stroke-linejoin:round"
         d="m 7.5634382,75.009878 a 0.10871098,0.10871098 0 0 0 -0.059945,0.02274 0.10871098,0.10871098 0 0 0 -0.041341,0.07028 h -0.00103 c 1.765e-4,0.0021 3.382e-4,0.0041 5.167e-4,0.0062 a 0.10871098,0.10871098 0 0 0 0.00362,0.03721 c 0.032911,0.357082 0.095458,0.671325 0.2284098,1.047998 0.09159,0.259496 0.2235834,0.50302 0.3353801,0.754476 0.018923,0.02875 0.037231,0.05782 0.05581,0.08682 H 8.3396182 C 8.3038251,76.980662 8.2673271,76.924152 8.2254133,76.860928 8.1175326,76.62064 7.9905136,76.388088 7.9019188,76.140042 7.7710084,75.773534 7.7104602,75.472093 7.6786767,75.125116 c -7.86e-5,-8.58e-4 7.82e-5,-0.0017 0,-0.0026 a 0.10871098,0.10871098 0 0 0 -0.022738,-0.0708 0.10871098,0.10871098 0 0 0 -0.092501,-0.04186 z" />
      <path
         sodipodi:type="star"
         style="fill:#729fcf;fill-opacity:1;stroke:none;stroke-width:0.3;stroke-linecap:round;stroke-linejoin:round"
         id="path4990"
         inkscape:flatsided="true"
         sodipodi:sides="5"
         sodipodi:cx="9.0806389"
         sodipodi:cy="66.799026"
         sodipodi:r1="1.2611004"
         sodipodi:r2="1.0202518"
         sodipodi:arg1="-1.5707963"
         sodipodi:arg2="-0.9424778"
         inkscape:rounded="0"
         inkscape:randomized="0"
         d="m 9.0806389,65.537926 1.1993781,0.871399 -0.4581219,1.409953 -1.4825125,0 -0.4581215,-1.409953 z"
         inkscape:transform-center-y="-0.056451984"
         transform="matrix(0.31246352,0.64794141,-0.64794141,0.31246352,48.756755,50.351113)"
         inkscape:transform-center-x="0.032975576" />
      <path
         id="path4992"
         style="fill:#d3d7cf;fill-opacity:1;stroke:none;stroke-width:0.0432271;stroke-linecap:round;stroke-linejoin:round"
         d="m 65.933768,40.729987 a 0.10871098,0.10871098 0 0 0 -0.02349,0.06813 0.10871098,0.10871098 0 0 0 0.09636,0.107603 c 2.17e-4,3.39e-4 2.81e-4,7.46e-4 4.99e-4,10e-4 0.182068,0.01813 0.364179,0.03582 0.546977,0.03893 0.490056,0.0084 1.133507,-0.0457 1.611848,-0.176748 0.171772,-0.04706 0.308717,-0.09236 0.42879,-0.139954 l -0.198715,-0.154425 c -0.07974,0.02782 -0.167586,0.05514 -0.268008,0.08296 -0.242471,0.06718 -0.492874,0.106167 -0.742928,0.134056 -0.558217,0.06226 -0.804584,0.04681 -1.219734,0.01156 -0.0503,-0.0077 -0.09148,-0.01145 -0.124463,-0.01164 a 0.10871098,0.10871098 0 0 0 -7.25e-4,9e-5 0.10871098,0.10871098 0 0 0 -0.02126,-0.0021 0.10871098,0.10871098 0 0 0 -0.04867,0.01126 c -5.37e-4,2.12e-4 -7.95e-4,6.88e-4 -0.0014,9.07e-4 -0.0044,0.0018 -0.0079,0.0039 -0.01137,0.0062 -0.0023,0.0015 -0.0045,0.0031 -0.0064,0.0049 a 0.10871098,0.10871098 0 0 0 -0.0017,0.0013 c -2.53e-4,2.56e-4 -3.89e-4,5.55e-4 -6.34e-4,8.16e-4 a 0.10871098,0.10871098 0 0 0 -0.01504,0.01514 z"
         transform="rotate(52.148714)" />
      <rect
         style="fill:#c17d11;fill-opacity:1;stroke:none;stroke-width:0.174021;stroke-linecap:round;stroke-linejoin:round"
         id="rect4994"
         width="1.1917565"
         height="1.1917565"
         x="76.478416"
         y="-20.364634"
         ry="0"
         transform="rotate(97.148714)" />
      <path
         id="path4996"
         style="fill:#d3d7cf;fill-opacity:1;stroke:none;stroke-width:0.0432271;stroke-linecap:round;stroke-linejoin:round"
         d="m 10.011275,78.861854 c -0.021859,0.0016 -0.042743,0.0097 -0.059942,0.02325 -0.047512,0.0369 -0.056287,0.105254 -0.019637,0.152961 0.010076,0.01305 0.022972,0.02365 0.037723,0.03101 6.586e-4,4.02e-4 0.00143,6.6e-4 0.00208,0.001 0.298864,0.182164 0.867167,0.441847 1.301791,0.592466 0.141067,0.05697 0.221686,-0.142502 0.08061,-0.199472 -0.394497,-0.140508 -0.971155,-0.395447 -1.255799,-0.566628 h -5.16e-4 c -0.02218,-0.02381 -0.05382,-0.0365 -0.0863,-0.03462 z"
         sodipodi:nodetypes="ccccccccccc" />
    </g>
    <path
       id="text5002"
       style="font-size:12.8112px;line-height:1.3;font-family:'Noto Sans CJK HK';-inkscape-font-specification:'Noto Sans CJK HK';fill:#204a87;fill-opacity:1;stroke:none;stroke-width:1.08946;stroke-linecap:round;stroke-linejoin:round"
       d="M 33.972528 10.335561 L 33.6401 12.730247 C 33.480672 12.650533 33.315167 12.587696 33.144351 12.542145 C 32.973535 12.496594 32.797246 12.473932 32.615042 12.473932 C 32.296186 12.473932 31.977206 12.530587 31.65835 12.644464 C 31.339493 12.758341 31.048963 12.946336 30.787046 13.208254 C 30.525128 13.458784 30.297589 13.788933 30.103997 14.198891 C 29.910406 14.608849 29.773921 15.115662 29.694207 15.719212 C 29.614493 16.265822 29.59751 16.732977 29.643061 17.12016 C 29.688612 17.507342 29.779302 17.826161 29.915955 18.076691 C 30.052608 18.315833 30.229121 18.49198 30.445488 18.605857 C 30.673242 18.719734 30.912622 18.776906 31.163152 18.776906 C 31.561723 18.776906 31.920108 18.685741 32.238964 18.503538 C 32.55782 18.309947 32.831283 18.110621 33.059037 17.905642 L 33.059059 18.62291 L 34.391278 18.62291 L 35.547626 10.335561 L 33.972528 10.335561 z M 36.9124 10.335561 L 35.759669 18.62291 L 37.348203 18.62291 L 38.504034 10.335561 L 36.9124 10.335561 z M 48.741652 10.335561 L 48.409225 12.730247 C 48.249797 12.650533 48.084291 12.587696 47.913475 12.542145 C 47.742659 12.496594 47.56637 12.473932 47.384166 12.473932 C 47.06531 12.473932 46.74633 12.530587 46.427474 12.644464 C 46.108618 12.758341 45.818605 12.946336 45.556687 13.208254 C 45.294769 13.458784 45.066713 13.788933 44.873122 14.198891 C 44.67953 14.608849 44.543045 15.115662 44.463331 15.719212 C 44.383617 16.265822 44.366634 16.732977 44.412185 17.12016 C 44.457736 17.507342 44.548427 17.826161 44.685079 18.076691 C 44.821732 18.315833 44.998246 18.49198 45.214612 18.605857 C 45.442367 18.719734 45.681747 18.776906 45.932277 18.776906 C 46.330847 18.776906 46.689749 18.685741 47.008605 18.503538 C 47.327461 18.309947 47.600407 18.110621 47.828161 17.905642 L 47.828183 18.62291 L 49.160402 18.62291 L 50.31675 10.335561 L 48.741652 10.335561 z M 14.678858 10.816669 C 14.280288 10.816669 13.898703 10.828 13.534296 10.850775 C 13.181276 10.862163 12.902451 10.868345 12.697472 10.868345 L 11.604038 18.62291 C 11.809017 18.62291 12.093954 18.634758 12.458361 18.657534 C 12.834156 18.680309 13.232362 18.69164 13.653708 18.69164 C 14.655827 18.69164 15.407624 18.509311 15.908683 18.144903 C 16.421131 17.769109 16.739925 17.182461 16.86519 16.385321 C 16.899353 16.100628 16.899331 15.861643 16.865168 15.668052 C 16.831004 15.474461 16.768571 15.303462 16.67747 15.155422 C 16.597756 15.007381 16.489583 14.887889 16.352931 14.796787 C 16.227666 14.705686 16.085085 14.6377 15.925657 14.592149 C 16.176187 14.444108 16.415474 14.221603 16.643228 13.925523 C 16.870983 13.618054 17.018921 13.242581 17.087248 12.79846 C 17.201125 12.058258 17.064338 11.545779 16.677156 11.261086 C 16.289973 10.965005 15.624039 10.816669 14.678858 10.816669 z M 14.576308 11.995408 C 14.986266 11.995408 15.248298 12.092238 15.362176 12.28583 C 15.476053 12.468033 15.521581 12.730196 15.498806 13.071828 C 15.47603 13.231256 15.436079 13.384741 15.379141 13.532782 C 15.322202 13.669434 15.242673 13.794592 15.140184 13.908469 C 15.037694 14.022347 14.900781 14.113511 14.729965 14.181838 C 14.559149 14.238776 14.37159 14.267104 14.166611 14.267104 L 13.790407 14.267104 L 14.081025 12.012461 L 14.320287 12.012461 C 14.400001 12.001073 14.485206 11.995408 14.576308 11.995408 z M 27.712945 12.439825 C 27.462415 12.439825 27.229086 12.479484 27.012719 12.559198 C 26.80774 12.638912 26.619837 12.730077 26.449021 12.832566 C 26.289593 12.935056 26.15275 13.037551 26.038873 13.140041 C 25.936384 13.24253 25.857016 13.311033 25.800078 13.345196 L 25.765971 13.345196 L 25.834274 12.576251 L 24.433326 12.576251 L 23.579534 18.62291 L 25.168068 18.62291 L 25.748577 14.489313 C 25.771352 14.443762 25.822503 14.387107 25.902217 14.31878 C 25.993319 14.239066 26.084757 14.164898 26.175859 14.096572 C 26.278348 14.016858 26.386337 13.95402 26.500214 13.908469 C 26.614091 13.851531 26.727999 13.823203 26.841876 13.823203 C 27.081018 13.823203 27.234524 13.903037 27.302851 14.062465 C 27.371177 14.210506 27.376966 14.500996 27.320027 14.93373 L 26.824814 18.62291 L 28.379241 18.62291 L 28.960115 14.540472 C 29.062605 13.823046 29.0228 13.29357 28.840597 12.951939 C 28.658393 12.610307 28.282331 12.439825 27.712945 12.439825 z M 41.781853 12.439825 C 41.440222 12.439825 41.109982 12.507811 40.791126 12.644464 C 40.483657 12.781117 40.199157 12.986108 39.93724 13.259414 C 39.68671 13.532719 39.46443 13.874716 39.270839 14.284674 C 39.088636 14.694632 38.957705 15.189598 38.877991 15.770371 C 38.798277 16.294207 38.798219 16.75003 38.877933 17.137213 C 38.957647 17.513008 39.088736 17.826161 39.27094 18.076691 C 39.464531 18.315833 39.703882 18.49198 39.988575 18.605857 C 40.284656 18.719734 40.597687 18.776906 40.927931 18.776906 C 41.212624 18.776906 41.474351 18.748579 41.713494 18.69164 C 41.964023 18.646089 42.180244 18.594583 42.362448 18.537644 C 42.556039 18.469318 42.709909 18.406997 42.823786 18.350059 C 42.949051 18.281733 43.034449 18.230226 43.08 18.196063 L 42.909211 17.137213 C 42.829497 17.182764 42.738617 17.228088 42.636127 17.273639 C 42.533638 17.31919 42.413953 17.36503 42.277301 17.410581 C 42.152036 17.456132 42.009872 17.495791 41.850443 17.529954 C 41.702403 17.552729 41.554138 17.56406 41.406097 17.56406 C 41.064466 17.56406 40.791254 17.450234 40.586275 17.222479 C 40.392684 16.983337 40.335813 16.601681 40.415527 16.077846 L 43.473222 16.077846 C 43.495997 16.055071 43.52401 15.969571 43.558173 15.821531 C 43.603724 15.662103 43.643979 15.474625 43.678142 15.258258 C 43.746468 14.757198 43.746485 14.330219 43.678159 13.977199 C 43.609833 13.62418 43.490217 13.333689 43.319401 13.105934 C 43.148585 12.87818 42.931927 12.712847 42.67001 12.610358 C 42.408092 12.49648 42.112097 12.439825 41.781853 12.439825 z M 18.386666 12.576251 L 17.805793 16.658689 C 17.714691 17.376116 17.759938 17.911257 17.942141 18.264276 C 18.124345 18.605908 18.500448 18.776906 19.069834 18.776906 C 19.263425 18.776906 19.445319 18.748579 19.616134 18.69164 C 19.78695 18.634701 19.94078 18.571864 20.077432 18.503538 C 20.214085 18.423824 20.328185 18.349656 20.419287 18.281329 C 20.510388 18.213003 20.578759 18.150682 20.62431 18.093744 L 21.000128 17.803322 L 20.982794 18.62291 L 22.366689 18.62291 L 23.22048 12.576251 L 21.614893 12.576251 L 21.034384 16.709849 C 20.988833 16.7554 20.920503 16.818237 20.829401 16.897951 C 20.749687 16.966277 20.663915 17.040446 20.572813 17.12016 C 20.481711 17.188486 20.379348 17.250807 20.265471 17.307745 C 20.162981 17.353296 20.054962 17.375958 19.941085 17.375958 C 19.793045 17.375958 19.679076 17.353296 19.599362 17.307745 C 19.519648 17.250807 19.462678 17.165307 19.428515 17.05143 C 19.405739 16.937553 19.39985 16.784068 19.411237 16.590476 C 19.434013 16.396885 19.4685 16.157901 19.514051 15.873207 L 19.9752 12.576251 L 18.386666 12.576251 z M 41.611202 13.566888 C 41.827569 13.566888 41.992325 13.67505 42.106203 13.891416 C 42.22008 14.107783 42.237657 14.506435 42.157943 15.087209 L 40.551839 15.087209 C 40.631553 14.517823 40.773938 14.124836 40.978917 13.908469 C 41.195283 13.680715 41.406223 13.566888 41.611202 13.566888 z M 32.768879 13.686778 C 32.905531 13.686778 33.024872 13.703774 33.127361 13.737937 C 33.241238 13.7721 33.360792 13.82309 33.486057 13.891416 L 33.059075 16.863845 C 32.945198 17.000497 32.791278 17.131321 32.597686 17.256586 C 32.415483 17.370463 32.227883 17.427635 32.034292 17.427635 C 31.715436 17.427635 31.498991 17.296294 31.385114 17.034377 C 31.282624 16.772459 31.277137 16.288825 31.368239 15.582786 C 31.470729 14.865359 31.629947 14.369877 31.846313 14.096572 C 32.074068 13.823266 32.381696 13.686778 32.768879 13.686778 z M 47.538003 13.686778 C 47.674656 13.686778 47.793996 13.703774 47.896486 13.737937 C 48.010363 13.7721 48.129916 13.82309 48.255181 13.891416 L 47.828199 16.863845 C 47.714322 17.000497 47.560919 17.131321 47.367328 17.256586 C 47.185124 17.370463 46.997008 17.427635 46.803416 17.427635 C 46.48456 17.427635 46.268115 17.296294 46.154238 17.034377 C 46.051749 16.772459 46.046262 16.288825 46.137363 15.582786 C 46.239853 14.865359 46.399071 14.369877 46.615438 14.096572 C 46.843192 13.823266 47.15082 13.686778 47.538003 13.686778 z M 13.858703 15.224151 L 14.115018 15.224151 C 14.969097 15.224151 15.34512 15.582628 15.242631 16.300055 C 15.174304 16.766951 15.01468 17.08577 14.76415 17.256586 C 14.51362 17.427401 14.154941 17.512901 13.688044 17.512901 L 13.500459 17.512901 C 13.44352 17.501513 13.380389 17.495847 13.312063 17.495847 L 13.653841 15.241205 C 13.722167 15.229817 13.790376 15.224151 13.858703 15.224151 z "
       transform="skewX(-4.4509642)" />
    <path
       id="text5006"
       style="font-style:normal;font-variant:normal;font-weight:normal;font-stretch:normal;font-size:11.9269px;line-height:1.3;font-family:Sawasdee;-inkscape-font-specification:'Sawasdee, Normal';font-variant-ligatures:normal;font-variant-caps:normal;font-variant-numeric:normal;font-variant-east-asian:normal;fill:#2e3436;stroke:none;stroke-width:1.08946;stroke-linecap:round;stroke-linejoin:round"
       d="M 70.298035 9.9459207 L 70.298035 14.249534 C 70.154384 13.826347 69.865222 13.453499 69.430387 13.131256 C 68.995553 12.80513 68.554469 12.642397 68.107987 12.642397 C 67.614916 12.642397 67.160702 12.781956 66.74528 13.061493 C 66.33374 13.337147 66.009559 13.708192 65.772729 14.174086 C 65.539782 14.636098 65.423397 15.138978 65.423397 15.682521 C 65.423397 16.226064 65.539782 16.732549 65.772729 17.202325 C 66.009559 17.668219 66.33374 18.038748 66.74528 18.314402 C 67.160702 18.590056 67.614916 18.727814 68.107987 18.727814 C 68.546704 18.727814 68.983667 18.563278 69.418502 18.23327 C 69.857219 17.899379 70.150502 17.530136 70.298035 17.126361 L 70.298035 17.860166 C 70.298035 18.15135 70.330735 18.411416 70.396737 18.64048 L 70.955876 18.64048 C 70.862697 18.454123 70.816349 18.194057 70.816349 17.860166 L 70.816349 9.9459207 L 70.298035 9.9459207 z M 50.646004 10.335561 L 49.074007 18.64048 L 49.586637 18.64048 L 50.914205 11.652276 L 53.878365 18.739699 L 56.93606 11.652276 L 58.211434 18.64048 L 58.758687 18.64048 L 57.230615 10.335561 L 56.928308 10.335561 L 53.913505 17.38836 L 50.947278 10.335561 L 50.646004 10.335561 z M 72.677734 10.866278 C 72.545731 10.866278 72.433466 10.912625 72.340287 11.005804 C 72.250991 11.098983 72.205929 11.209446 72.205929 11.337567 C 72.205929 11.46957 72.250991 11.582352 72.340287 11.675531 C 72.433466 11.764827 72.545731 11.809373 72.677734 11.809373 C 72.809738 11.809373 72.920717 11.764827 73.010014 11.675531 C 73.09931 11.582352 73.143856 11.46957 73.143856 11.337567 C 73.143856 11.209446 73.096991 11.098983 73.003813 11.005804 C 72.914516 10.912625 72.805855 10.866278 72.677734 10.866278 z M 76.522978 12.630511 C 76.158027 12.630511 75.808354 12.721921 75.474463 12.904396 C 75.140572 13.086872 74.855531 13.360585 74.618701 13.725535 L 75.032113 13.99942 C 75.226235 13.723766 75.453601 13.514169 75.713725 13.370518 C 75.977731 13.226867 76.247324 13.155027 76.522978 13.155027 C 76.992754 13.155027 77.406027 13.345055 77.763212 13.725535 C 78.12428 14.106015 78.314824 14.61662 78.334237 15.257224 L 78.17714 15.257224 C 77.963606 15.257224 77.786708 15.259026 77.64694 15.262909 C 77.511054 15.262909 77.324631 15.268831 77.087801 15.280479 C 76.850972 15.292126 76.653219 15.309377 76.494039 15.332672 C 76.334858 15.352084 76.146633 15.385301 75.929215 15.431891 C 75.711798 15.474598 75.528978 15.526868 75.381445 15.588987 C 75.237795 15.647224 75.08639 15.724987 74.927209 15.822048 C 74.771911 15.915227 74.645999 16.022086 74.548938 16.142442 C 74.455759 16.258915 74.377996 16.400277 74.315877 16.567222 C 74.257641 16.734167 74.228544 16.916987 74.228544 17.114992 C 74.228544 17.305232 74.265365 17.493458 74.339132 17.679816 C 74.412898 17.862291 74.521559 18.035067 74.66521 18.19813 C 74.808861 18.361193 75.003009 18.493028 75.247603 18.593972 C 75.49608 18.691033 75.777518 18.739699 76.091996 18.739699 C 76.526831 18.739699 76.938301 18.61327 77.326546 18.360911 C 77.718674 18.108552 78.0547 17.788491 78.334237 17.400246 L 78.334237 17.860166 C 78.334237 18.159115 78.369256 18.419181 78.43914 18.64048 L 78.998279 18.64048 C 78.901218 18.458005 78.852551 18.197939 78.852551 17.860166 L 78.852551 15.257224 C 78.844786 14.849567 78.772946 14.47672 78.637061 14.138946 C 78.505057 13.801173 78.330479 13.525658 78.113062 13.312123 C 77.895644 13.094706 77.648709 12.927852 77.373055 12.811379 C 77.101283 12.691023 76.818044 12.630511 76.522978 12.630511 z M 61.78641 12.642397 C 61.293338 12.642397 60.837322 12.781956 60.418018 13.061493 C 60.002595 13.337147 59.67481 13.708192 59.434098 14.174086 C 59.197269 14.63998 59.078564 15.142861 59.078564 15.682521 C 59.078564 16.226064 59.19495 16.732549 59.427897 17.202325 C 59.664727 17.668219 59.988908 18.038748 60.400448 18.314402 C 60.81587 18.590056 61.270084 18.727814 61.763155 18.727814 C 62.252344 18.727814 62.72793 18.594177 63.189941 18.326288 C 63.651953 18.054516 64.001627 17.707161 64.238456 17.283974 L 63.778536 17.021458 C 63.580531 17.374761 63.293171 17.656715 62.916573 17.866367 C 62.539975 18.07602 62.155283 18.18056 61.763155 18.18056 C 61.16914 18.18056 60.654931 17.937746 60.220097 17.452439 C 59.785262 16.967133 59.56794 16.37748 59.56794 15.682521 L 64.512341 15.682521 L 64.500456 15.420005 C 64.457749 14.915287 64.312267 14.451546 64.06379 14.028359 C 63.815313 13.605172 63.48933 13.269145 63.085555 13.020668 C 62.685663 12.768309 62.252304 12.642397 61.78641 12.642397 z M 72.415735 12.735414 L 72.415735 18.64048 L 72.939734 18.64048 L 72.939734 12.735414 L 72.415735 12.735414 z M 61.78641 13.166396 C 62.306658 13.166396 62.769113 13.356424 63.172888 13.736904 C 63.576663 14.117384 63.832608 14.601211 63.941317 15.187461 L 59.649072 15.187461 C 59.753898 14.601211 60.006756 14.117384 60.406649 13.736904 C 60.810424 13.356424 61.270044 13.166396 61.78641 13.166396 z M 68.107987 13.166396 C 68.705885 13.166396 69.22061 13.411012 69.651562 13.900201 C 70.082515 14.38939 70.298035 14.98368 70.298035 15.682521 C 70.298035 16.381363 70.080713 16.976938 69.645878 17.470009 C 69.214926 17.96308 68.702002 18.209499 68.107987 18.209499 C 67.513973 18.209499 66.999764 17.96308 66.564929 17.470009 C 66.130095 16.973056 65.912773 16.37748 65.912773 15.682521 C 65.912773 14.98368 66.130095 14.38939 66.564929 13.900201 C 66.999764 13.411012 67.513973 13.166396 68.107987 13.166396 z M 78.334237 15.629811 L 78.334237 16.748089 C 78.124584 17.132452 77.80993 17.473884 77.390625 17.772833 C 76.97132 18.071782 76.538478 18.221385 76.091996 18.221385 C 75.661044 18.221385 75.329138 18.106801 75.096191 17.877736 C 74.863244 17.648672 74.746859 17.394529 74.746859 17.114992 C 74.746859 16.963577 74.774153 16.8235 74.828507 16.695379 C 74.886744 16.567259 74.960386 16.458598 75.049683 16.369301 C 75.138979 16.276122 75.255365 16.192954 75.399015 16.119187 C 75.546548 16.041538 75.688427 15.979225 75.824312 15.932635 C 75.960198 15.882163 76.12525 15.837618 76.319373 15.798793 C 76.517378 15.759969 76.690154 15.732674 76.837687 15.717145 C 76.98522 15.697732 77.163403 15.682283 77.373055 15.670636 C 77.58659 15.655106 77.75396 15.645579 77.874316 15.641697 C 77.998555 15.637815 78.151761 15.633694 78.334237 15.629811 z " />
  </g>
</svg>
